# xmcd CD database file
#
# Track frame offsets:
#	150
#	16775
#	39002
#	56425
#	76370
#	96017
#	119262
#	121125
#	137675
#	159935
#	177355
#	197342
#	216987
#
# Disc length: 3201 seconds
#
# Revision: 3
# Processed by: cddbd v1.5.1PL0 Copyright (c) Steve Scherf et al.
# Submitted via: CDex 1.51
#
DISCID=990c7f0d
DTITLE=ionz.com - WWWoman
DYEAR=1998
DGENRE=JPop
TTITLE0=ねこ
TTITLE1=あーっ！！
TTITLE2=チャリ．ド．パリ
TTITLE3=チャイナタウン
TTITLE4=秋葉原で逢いましょう
TTITLE5=ランデブー
TTITLE6=?!
TTITLE7=A Cat
TTITLE8=AH!!
TTITLE9=Chari de Raris
TTITLE10=China town
TTITLE11=See you at Akihabara
TTITLE12=Randez-Vous
EXTD=YEAR: 1998
EXTT0=
EXTT1=
EXTT2=
EXTT3=
EXTT4=
EXTT5=
EXTT6=
EXTT7=
EXTT8=
EXTT9=
EXTT10=
EXTT11=
EXTT12=
PLAYORDER=
